<svg xmlns="http://www.w3.org/2000/svg" xmlns:xlink="http://www.w3.org/1999/xlink" width="110.117" height="110.117" viewBox="0 0 110.117 110.117">
  <defs>
    <clipPath id="clip-path">
      <rect id="Rectángulo_455292" data-name="Rectángulo 455292" width="79" height="79" transform="translate(0.5 0.5)" fill="#38454c"/>
    </clipPath>
  </defs>
  <g id="Grupo_154427" data-name="Grupo 154427" transform="translate(-794.039 -2920.081)">
    <path id="Elipse_5729" data-name="Elipse 5729" d="M55.059,0A55.059,55.059,0,1,1,0,55.059,55.059,55.059,0,0,1,55.059,0Z" transform="translate(794.039 2920.081)" fill="#f7dca8"/>
    <g id="Grupo_1177963" data-name="Grupo 1177963" transform="translate(810.004 2936.143)">
      <g id="Grupo_1177962" data-name="Grupo 1177962" transform="translate(-0.289 -0.287)" clip-path="url(#clip-path)">
        <path id="Trazado_998151" data-name="Trazado 998151" d="M77.191,29.144l.434,1.813a.956.956,0,1,1-1.868.407l-.439-1.814a.959.959,0,1,1,1.872-.407m-.484,18.172a.954.954,0,0,0,1.117-.764l.307-1.863a.958.958,0,1,0-1.886-.33l-.285,1.764a.954.954,0,0,0,.746,1.194M76.517,36.9l.068,1.813a.959.959,0,1,0,1.918.027l-.068-1.854a.96.96,0,1,0-1.918.014M53.331,50.446,48.049,59.6a4.076,4.076,0,0,1-7.061-4.075l4.233-7.336A3.614,3.614,0,0,0,45,44.675c-.562-.974-1.274-1.418-1.7-1.419h0c-.269,0-.522.2-.752.6l-5.378,9.312a7.788,7.788,0,0,1-3.862,3.4l-7.9,7.9a7.912,7.912,0,0,0-1.358,1.767l-5.889,10.2a3.851,3.851,0,0,1-3.417,2.06,4.292,4.292,0,0,1-2.14-.588,4.18,4.18,0,0,1-1.9-2.266,3.9,3.9,0,0,1,.395-3.281l6.3-10.914a10.1,10.1,0,0,1,1.656-2.163l2.154-2.151H19.991l-7.939.194A2.449,2.449,0,0,0,9.92,58.6L7.653,62.522a3.851,3.851,0,0,1-3.417,2.06,4.288,4.288,0,0,1-2.14-.588A4.18,4.18,0,0,1,.2,61.728a3.9,3.9,0,0,1,.395-3.281l4.039-6.993a4.358,4.358,0,0,1,3.856-2.225H19.423l8.261-14.31H24.673a5.153,5.153,0,0,1-5.147-5.147v-11.5A3.936,3.936,0,0,1,23.6,14.224a3.936,3.936,0,0,1,4.075,4.052V25.63a1.141,1.141,0,0,0,1.14,1.14c.495,0,.923-.007,1.3-.013a8.281,8.281,0,0,1,5.654,1.493,5.037,5.037,0,0,1,2.574,4.462v1.08l.937-.54a5.022,5.022,0,0,1,4.683-.238l1.4-2.417c-.11,0-.221.008-.331.008a7.441,7.441,0,0,1-3.739-.987c-3.95-2.284-5.053-7.8-2.459-12.291s7.918-6.294,11.87-4.014h0a7.468,7.468,0,0,1,2.886,3.038L62.747.479a.959.959,0,0,1,1.661.959l-10,17.322a10.333,10.333,0,0,1-6.552,11.346L45.6,34.018C48.654,36.234,52.668,40.69,53.824,45a6.956,6.956,0,0,1-.492,5.442M51.5,24.644c2.066-3.579,1.275-7.917-1.761-9.671a5.544,5.544,0,0,0-2.792-.735,7.713,7.713,0,0,0-6.459,4.047c-2.065,3.578-1.277,7.917,1.757,9.672s7.19.265,9.255-3.312M25.391,42.727l11.692,6.753.958-1.659-11.694-6.75Zm4.635,14.412h-6.1l-3.509,3.505a8.141,8.141,0,0,0-1.353,1.767l-6.3,10.915a2.046,2.046,0,0,0,.8,2.928,2.047,2.047,0,0,0,2.937-.77l5.889-10.2a9.846,9.846,0,0,1,1.665-2.168Zm6.1-6L24.432,44.388,21.01,50.316a1.633,1.633,0,0,1-1.434.831H8.487a2.451,2.451,0,0,0-2.2,1.268L2.253,59.405a2.047,2.047,0,0,0,.8,2.928,2.3,2.3,0,0,0,1.574.292,2.033,2.033,0,0,0,1.364-1.062l2.266-3.922A4.359,4.359,0,0,1,12,55.416l7.952-.195H30.29a5.882,5.882,0,0,0,5.216-3.011ZM51.972,45.5c-1.117-4.169-5.7-8.976-8.5-10.587a3.126,3.126,0,0,0-3.235,0l-1.325.764a1.656,1.656,0,0,1-2.487-1.437V32.712a3.123,3.123,0,0,0-1.615-2.8c-2.216-1.277-2.589-1.27-4.664-1.237-.385.006-.823.013-1.333.013a3.061,3.061,0,0,1-3.057-3.057V18.276a2.158,2.158,0,0,0-4.315,0v11.5A3.233,3.233,0,0,0,24.673,33h3.464a1.656,1.656,0,0,1,1.43,2.491l-2.262,3.918L39,46.161,40.884,42.9A2.753,2.753,0,0,1,43.3,41.338h0a4.217,4.217,0,0,1,3.359,2.378,5.521,5.521,0,0,1,.225,5.431l-4.233,7.335a2.159,2.159,0,0,0,3.739,2.158l5.282-9.154a5.122,5.122,0,0,0,.3-3.987M68.851,14.938a.957.957,0,0,0-.163,1.343l1.063,1.429a.96.96,0,1,0,1.615-1.036L70.23,15.146a.964.964,0,0,0-1.379-.208m-5.418-5.4a.954.954,0,0,0,.1,1.348l1.375,1.239a.958.958,0,1,0,1.33-1.379L64.78,9.438a.95.95,0,0,0-1.348.1M73.1,21.3a.954.954,0,0,0-.425,1.285l.792,1.691a.957.957,0,0,0,1.75-.774l-.823-1.755A.955.955,0,0,0,73.1,21.3M18.64,5.848,17,6.92a.957.957,0,1,0,1.09,1.574l1.565-1.022A.957.957,0,0,0,18.64,5.848M46.224,75.935l-1.791.294a.958.958,0,1,0,.213,1.9l1.872-.3a.959.959,0,1,0-.294-1.895M25.682,2.41l-1.823.724a.958.958,0,0,0,.76,1.76l1.732-.687a.958.958,0,1,0-.669-1.8M7.261,16.507,6.189,18.1a.958.958,0,1,0,1.592,1.067l1.027-1.524a.958.958,0,1,0-1.547-1.131m5.156-5.9-1.393,1.375a.956.956,0,1,0,1.375,1.33l1.262-1.244a.96.96,0,1,0-1.244-1.461M.011,38.547.02,40.41a.96.96,0,1,0,1.918.032l-.014-1.873a.957.957,0,0,0-1.913-.023M53.37,73.823l-1.651.633a.958.958,0,1,0,.543,1.836l1.782-.674a.967.967,0,0,0,.574-1.271.958.958,0,0,0-1.248-.525M4.412,25.811l.714-1.719a.958.958,0,1,0-1.75-.778l-.733,1.768a.956.956,0,1,0,1.768.728M2.44,33l.335-1.732a.961.961,0,1,0-1.85-.511L.554,32.685A.956.956,0,1,0,2.44,33M31.385,75.754l-1.732-.416a.959.959,0,1,0-.574,1.827l1.827.443a.959.959,0,1,0,.479-1.855m7.413.828L37,76.519a.959.959,0,1,0-.186,1.909l1.927.068a.957.957,0,1,0,.059-1.913M46.97.76a.958.958,0,1,0-.4,1.872l1.777.4a.957.957,0,1,0,.507-1.845ZM39.137,0a.957.957,0,1,0,.014,1.913l1.831.036A.956.956,0,1,0,41.1.045ZM54.482,3.066A.958.958,0,1,0,53.7,4.812l1.42.629a.958.958,0,1,0,.873-1.705ZM1.033,48.2a.957.957,0,1,0,1.877-.371l-.366-1.759a.961.961,0,1,0-1.9.281ZM34.366,1.248A.953.953,0,0,0,33.271.457L31.344.8a.956.956,0,1,0,.389,1.873h0l1.845-.326a.958.958,0,0,0,.792-1.1M78.341,53.71c.517,6.361-.2,11.647-2.124,15.711a17.528,17.528,0,0,1-9.787,8.961,1.633,1.633,0,0,1-1.219,0,17.522,17.522,0,0,1-9.789-8.961C53.5,65.358,52.783,60.072,53.3,53.71A1.655,1.655,0,0,1,54.738,52.2a25.25,25.25,0,0,0,10.2-3.863,1.643,1.643,0,0,1,1.776,0A25.241,25.241,0,0,0,76.9,52.195a1.658,1.658,0,0,1,1.444,1.516m-1.9.358a27.151,27.151,0,0,1-10.625-4.029A27.165,27.165,0,0,1,55.2,54.069c-.923,11.909,2.554,19.268,10.625,22.493,8.071-3.226,11.548-10.586,10.625-22.493m-3.651,8.194a6.974,6.974,0,1,1-6.974-6.978,6.982,6.982,0,0,1,6.974,6.978m-1.918,0a5.056,5.056,0,1,0-5.056,5.056,5.064,5.064,0,0,0,5.056-5.056M67.5,59.944l-2.6,2.6-.751-.754a.959.959,0,0,0-1.358,1.354l1.429,1.433a.959.959,0,0,0,.678.282h0a.959.959,0,0,0,.678-.281L68.855,61.3A.959.959,0,1,0,67.5,59.944" transform="translate(0.248 0.247)" fill="#38454c"/>
      </g>
    </g>
  </g>
</svg>
