<svg xmlns="http://www.w3.org/2000/svg" xmlns:xlink="http://www.w3.org/1999/xlink" width="110.117" height="110.117" viewBox="0 0 110.117 110.117">
  <defs>
    <clipPath id="clip-path">
      <rect id="Rectángulo_455293" data-name="Rectángulo 455293" width="68" height="68" transform="translate(0.289 0.289)" fill="#38454c"/>
    </clipPath>
  </defs>
  <g id="Grupo_154427" data-name="Grupo 154427" transform="translate(-794.039 -2920.081)">
    <path id="Elipse_5729" data-name="Elipse 5729" d="M55.059,0A55.059,55.059,0,1,1,0,55.059,55.059,55.059,0,0,1,55.059,0Z" transform="translate(794.039 2920.081)" fill="#f7dca8"/>
    <g id="Grupo_1177965" data-name="Grupo 1177965" transform="translate(814.926 2941.066)">
      <g id="Grupo_1177964" data-name="Grupo 1177964" clip-path="url(#clip-path)">
        <path id="Trazado_998152" data-name="Trazado 998152" d="M34.286,56.813a1.933,1.933,0,0,0,.7-.135A26.053,26.053,0,0,0,49.544,43.357c2.882-6.083,3.949-14.019,3.172-23.583a1.885,1.885,0,0,0-1.656-1.742A39.027,39.027,0,0,1,35.3,12.059a1.894,1.894,0,0,0-2.033,0,39.025,39.025,0,0,1-15.749,5.97,1.9,1.9,0,0,0-1.664,1.739c-.778,9.568.289,17.5,3.172,23.587A26.056,26.056,0,0,0,33.589,56.678a1.9,1.9,0,0,0,.7.135m-16.759-36.9a.225.225,0,0,1,.205-.216,40.688,40.688,0,0,0,16.433-6.216.227.227,0,0,1,.122-.039.234.234,0,0,1,.125.04,40.687,40.687,0,0,0,16.435,6.215.221.221,0,0,1,.2.213c1.518,18.678-3.935,30.2-16.667,35.212a.208.208,0,0,1-.176,0C21.464,50.1,16.009,38.584,17.527,19.909M44.279,32.73a9.99,9.99,0,1,0-9.992,9.988,10,10,0,0,0,9.992-9.988m-18.305,0a8.315,8.315,0,1,1,8.313,8.313,8.324,8.324,0,0,1-8.313-8.313m12.493-1.909-4.994,5a.838.838,0,0,1-1.185,0l-2.181-2.181a.838.838,0,1,1,1.185-1.185l1.588,1.588,4.4-4.405a.838.838,0,1,1,1.185,1.184M.245,68.333a.838.838,0,0,1,0-1.185l12.7-12.7-2.048.323a.838.838,0,0,1-.261-1.655l4.591-.723a.838.838,0,0,1,.958.955l-.7,4.52a.838.838,0,0,1-1.656-.255l.306-1.991L1.43,68.333a.838.838,0,0,1-1.185,0m66.9,0-12.7-12.7.323,2.053a.838.838,0,0,1-1.655.261l-.723-4.591a.838.838,0,0,1,.954-.958l4.52.691a.838.838,0,0,1-.253,1.656l-1.99-.3L68.332,67.148a.838.838,0,0,1-1.185,1.185M54.436,12.957,67.148.245A.838.838,0,0,1,68.332,1.43l-12.7,12.7,2.044-.322a.838.838,0,1,1,.261,1.655l-4.591.723a.838.838,0,0,1-.958-.955l.7-4.52a.838.838,0,0,1,1.656.255ZM.245,1.43A.838.838,0,0,1,1.43.245l12.7,12.7L13.8,10.893a.838.838,0,0,1,1.655-.261l.723,4.591a.838.838,0,0,1-.827.968.847.847,0,0,1-.127-.01l-4.52-.691a.838.838,0,1,1,.254-1.656l1.994.3Zm7.943,13.3a32.625,32.625,0,0,0-.1,38.99.838.838,0,1,1-1.345,1,34.3,34.3,0,0,1,.1-41,.838.838,0,0,1,1.34,1.006m5.493-6.811a.838.838,0,0,1,.173-1.172,34.306,34.306,0,0,1,41,.1.838.838,0,1,1-1.006,1.34,32.631,32.631,0,0,0-38.994-.1.838.838,0,0,1-1.172-.173M60.389,53.847a32.623,32.623,0,0,0,.092-38.994.838.838,0,0,1,1.345-1,34.3,34.3,0,0,1-.1,41,.838.838,0,0,1-1.34-1.006M14.73,60.389a32.625,32.625,0,0,0,38.99.1.838.838,0,0,1,1,1.345,34.3,34.3,0,0,1-41-.1.838.838,0,0,1,1.006-1.34" transform="translate(0 0)" fill="#38454c"/>
      </g>
    </g>
  </g>
</svg>
