<svg xmlns="http://www.w3.org/2000/svg" xmlns:xlink="http://www.w3.org/1999/xlink" width="140" height="118" viewBox="0 0 140 118">
  <defs>
    <clipPath id="clip-path">
      <rect id="Rectángulo_455229" data-name="Rectángulo 455229" width="59.334" height="55.396" fill="#12263f"/>
    </clipPath>
  </defs>
  <g id="Grupo_1177445" data-name="Grupo 1177445" transform="translate(-1153.059 -6928)">
    <g id="Polígono_11" data-name="Polígono 11" transform="translate(1153.059 6928)" fill="#f7dca8">
      <path d="M 129.4643859863281 116.5000152587891 L 10.53562545776367 116.5000152587891 C 8.897662162780762 116.5000152587891 7.435843944549561 115.6502532958984 6.625280380249023 114.226921081543 C 5.814698696136475 112.803596496582 5.82969856262207 111.1128311157227 6.665371417999268 109.7041015625 L 66.12976837158203 9.46415901184082 C 66.94847869873047 8.084013938903809 68.39530181884766 7.260050296783447 70.00000762939453 7.260050296783447 C 71.60469818115234 7.260050296783447 73.05153656005859 8.084013938903809 73.87024688720703 9.46415901184082 L 133.3346099853516 109.7041015625 C 134.1703186035156 111.1128311157227 134.185302734375 112.803596496582 133.3747406005859 114.226921081543 C 132.5641479492188 115.6502532958984 131.1023559570312 116.5000152587891 129.4643859863281 116.5000152587891 Z" stroke="none"/>
      <path d="M 70.00000762939453 8.760055541992188 C 69.48630523681641 8.760055541992188 68.20656585693359 8.903228759765625 67.41983032226562 10.22943115234375 L 7.9554443359375 110.4693908691406 C 7.15240478515625 111.8230895996094 7.66925048828125 113.0289916992188 7.928726196289062 113.4846115112305 C 8.188201904296875 113.9402542114258 8.961654663085938 115.0000152587891 10.53562927246094 115.0000152587891 L 129.4643707275391 115.0000152587891 C 131.0383453369141 115.0000152587891 131.8118133544922 113.9402542114258 132.0712890625 113.4846115112305 C 132.3307495117188 113.0289688110352 132.8475646972656 111.8230895996094 132.0445251464844 110.4693908691406 L 72.58016967773438 10.22943115234375 C 71.79342651367188 8.903228759765625 70.51371002197266 8.760055541992188 70.00000762939453 8.760055541992188 M 70.00000762939453 5.760047912597656 C 71.99905395507812 5.760047912597656 73.99810028076172 6.739639282226562 75.16032409667969 8.698829650878906 L 134.6246948242188 108.9387893676758 C 136.9973449707031 112.9383697509766 134.11474609375 117.9999923706055 129.4643859863281 118.0000152587891 L 10.53562927246094 118.0000152587891 C 5.885223388671875 117.9999923706055 3.002670288085938 112.9383697509766 5.375289916992188 108.9387893676758 L 64.83966827392578 8.698829650878906 C 66.00190734863281 6.739639282226562 68.00096130371094 5.760047912597656 70.00000762939453 5.760047912597656 Z" stroke="none" fill="#38454c"/>
    </g>
    <g id="Grupo_1177872" data-name="Grupo 1177872" transform="translate(1193.392 6981.741)">
      <g id="Grupo_1177871" data-name="Grupo 1177871" clip-path="url(#clip-path)">
        <path id="Trazado_997966" data-name="Trazado 997966" d="M170.682,62.146a6.544,6.544,0,0,1-6.492-6.581.84.84,0,0,1,1.68,0,4.813,4.813,0,1,0,9.624,0,.84.84,0,0,1,1.68,0A6.544,6.544,0,0,1,170.682,62.146Z" transform="translate(-124.795 -41.594)"/>
        <path id="Trazado_997967" data-name="Trazado 997967" d="M184.7,100.68a.84.84,0,0,1-.837-.782l-.56-8.054a2.613,2.613,0,0,0-1.99-2.584,29.118,29.118,0,0,1-4.9-1.969.437.437,0,0,0-.433.032l-2.611,1.761a2.276,2.276,0,0,1-2.555,0l-2.611-1.761a.437.437,0,0,0-.433-.031l-.525.252a.84.84,0,1,1-.718-1.519l.51-.244a2.122,2.122,0,0,1,2.1.15l2.611,1.761a.6.6,0,0,0,.677,0l2.611-1.761a2.122,2.122,0,0,1,2.1-.15,28.624,28.624,0,0,0,4.56,1.847,4.267,4.267,0,0,1,3.273,4.158l.558,8a.84.84,0,0,1-.779.9Z" transform="translate(-126.207 -65.038)"/>
        <path id="Trazado_997968" data-name="Trazado 997968" d="M180.146,6.47a.84.84,0,0,1-.83-.719l-.6-4.155A1.662,1.662,0,0,1,180.537,0h2.087a1.665,1.665,0,0,1,1.833,1.475l-.612,4.276a.84.84,0,1,1-1.662-.241l.555-3.821a.69.69,0,0,0-.113-.009h-2.087a.684.684,0,0,0-.121.01l.563,3.82a.84.84,0,0,1-.832.96Z" transform="translate(-135.833 0)"/>
        <path id="Trazado_997969" data-name="Trazado 997969" d="M207.126,14.2a.84.84,0,0,1-.8-.6,6.077,6.077,0,0,0-1.724-2.758A.84.84,0,1,1,205.726,9.6a7.756,7.756,0,0,1,2.2,3.518.84.84,0,0,1-.8,1.082Z" transform="translate(-155.297 -7.134)"/>
        <path id="Trazado_997970" data-name="Trazado 997970" d="M162.632,13.936a.84.84,0,0,1-.8-1.082A7.73,7.73,0,0,1,164.14,9.24a.84.84,0,1,1,1.1,1.266,6.053,6.053,0,0,0-1.807,2.832A.84.84,0,0,1,162.632,13.936Z" transform="translate(-122.972 -6.866)"/>
        <path id="Trazado_997971" data-name="Trazado 997971" d="M165.018,29.132a8.945,8.945,0,0,1,1.684.16l.6.114a17.3,17.3,0,0,0,3.247.308,2.572,2.572,0,0,1,2.569,2.569v.352a2.572,2.572,0,0,1-2.569,2.569H159.493a2.572,2.572,0,0,1-2.569-2.569v-.424a2.5,2.5,0,0,1,2.5-2.5,18.047,18.047,0,0,0,3.389-.322l.526-.1A8.951,8.951,0,0,1,165.018,29.132Zm5.526,4.393a.891.891,0,0,0,.89-.889v-.352a.89.89,0,0,0-.889-.889,18.981,18.981,0,0,1-3.563-.338l-.6-.114a7.268,7.268,0,0,0-2.735,0l-.526.1a19.73,19.73,0,0,1-3.705.352.818.818,0,0,0-.817.817v.424a.89.89,0,0,0,.889.889Z" transform="translate(-119.272 -22.142)"/>
        <path id="Línea_3306" data-name="Línea 3306" d="M-2.66,5.454a.84.84,0,0,1-.84-.84V-2.66a.84.84,0,0,1,.84-.84.84.84,0,0,1,.84.84V4.614A.84.84,0,0,1-2.66,5.454Z" transform="translate(56.724 30.187)"/>
        <path id="Trazado_997972" data-name="Trazado 997972" d="M180.973,95.146h-7.017a.84.84,0,0,1,0-1.68h7.017a.857.857,0,0,0,.856-.856V87.966a.84.84,0,1,1,1.68,0v4.645A2.538,2.538,0,0,1,180.973,95.146Z" transform="translate(-131.58 -66.221)"/>
        <path id="Trazado_997973" data-name="Trazado 997973" d="M35.48,62.146a6.544,6.544,0,0,1-6.491-6.581.84.84,0,0,1,1.68,0,4.813,4.813,0,1,0,9.624,0,.84.84,0,0,1,1.68,0A6.544,6.544,0,0,1,35.48,62.146Z" transform="translate(-22.033 -41.594)"/>
        <path id="Trazado_997974" data-name="Trazado 997974" d="M.841,100.68l-.059,0a.84.84,0,0,1-.78-.9l.56-8.054a4.246,4.246,0,0,1,3.271-4.1,28.622,28.622,0,0,0,4.56-1.847,2.122,2.122,0,0,1,2.105.15l2.611,1.761a.6.6,0,0,0,.677,0l2.611-1.76a2.122,2.122,0,0,1,2.1-.15l.51.245a.84.84,0,1,1-.718,1.518l-.525-.252a.437.437,0,0,0-.433.031l-2.611,1.761a2.276,2.276,0,0,1-2.555,0L9.559,87.323a.437.437,0,0,0-.433-.031,29.116,29.116,0,0,1-4.9,1.969,2.592,2.592,0,0,0-1.988,2.526L1.677,99.9A.84.84,0,0,1,.841,100.68Z" transform="translate(0 -65.038)"/>
        <path id="Trazado_997975" data-name="Trazado 997975" d="M48.978,6.47a.84.84,0,0,1-.832-.96L48.7,1.689a.69.69,0,0,0-.113-.009H46.5a.684.684,0,0,0-.121.01l.563,3.82a.84.84,0,1,1-1.662.241l-.6-4.155A1.662,1.662,0,0,1,46.5,0h2.086A1.665,1.665,0,0,1,50.42,1.475l-.612,4.276A.84.84,0,0,1,48.978,6.47Z" transform="translate(-33.957 0)"/>
        <path id="Trazado_997976" data-name="Trazado 997976" d="M28.619,14.2a.84.84,0,0,1-.8-1.082,7.756,7.756,0,0,1,2.2-3.518.84.84,0,0,1,1.128,1.244,6.077,6.077,0,0,0-1.724,2.758A.84.84,0,0,1,28.619,14.2Z" transform="translate(-21.114 -7.134)"/>
        <path id="Trazado_997977" data-name="Trazado 997977" d="M72.81,13.936a.84.84,0,0,1-.8-.6A6.053,6.053,0,0,0,70.2,10.506.84.84,0,0,1,71.3,9.24a7.731,7.731,0,0,1,2.312,3.614.84.84,0,0,1-.8,1.082Z" transform="translate(-53.137 -6.866)"/>
        <path id="Trazado_997978" data-name="Trazado 997978" d="M30.985,29.132a9.783,9.783,0,0,1,1.683.16l.526.1a18.047,18.047,0,0,0,3.389.322,2.5,2.5,0,0,1,2.5,2.5v.424A2.572,2.572,0,0,1,36.511,35.2H25.459a2.572,2.572,0,0,1-2.569-2.569v-.352a2.572,2.572,0,0,1,2.569-2.569,17.3,17.3,0,0,0,3.246-.308l.6-.114A8.944,8.944,0,0,1,30.985,29.132Zm5.525,4.393a.89.89,0,0,0,.889-.889v-.424a.818.818,0,0,0-.817-.817,19.731,19.731,0,0,1-3.705-.352l-.526-.1a6.834,6.834,0,0,0-1.367-.13,7.265,7.265,0,0,0-1.368.13l-.6.114a18.98,18.98,0,0,1-3.563.338.891.891,0,0,0-.89.889v.352a.891.891,0,0,0,.89.889Z" transform="translate(-17.398 -22.142)"/>
        <path id="Línea_3307" data-name="Línea 3307" d="M-2.66,5.454a.84.84,0,0,1-.84-.84V-2.66a.84.84,0,0,1,.84-.84.84.84,0,0,1,.84.84V4.614A.84.84,0,0,1-2.66,5.454Z" transform="translate(7.93 30.187)"/>
        <path id="Trazado_997979" data-name="Trazado 997979" d="M40.414,95.146H33.4a2.538,2.538,0,0,1-2.535-2.535V87.966a.84.84,0,1,1,1.68,0v4.645a.857.857,0,0,0,.856.856h7.017a.84.84,0,0,1,0,1.68Z" transform="translate(-23.457 -66.221)"/>
        <path id="Trazado_997980" data-name="Trazado 997980" d="M99.958,125.676a7.8,7.8,0,0,1-7.733-7.841v-.316a.84.84,0,0,1,1.68,0v.316a6.054,6.054,0,1,0,12.106,0v-.316a.84.84,0,0,1,1.68,0v.316A7.8,7.8,0,0,1,99.958,125.676Z" transform="translate(-70.097 -88.683)"/>
        <path id="Trazado_997981" data-name="Trazado 997981" d="M88.46,173.671a.84.84,0,0,1-.837-.782l-.683-9.822a3.366,3.366,0,0,0-2.567-3.318,35.369,35.369,0,0,1-5.937-2.388.717.717,0,0,0-.712.051l-3.184,2.147a2.591,2.591,0,0,1-2.91,0l-3.184-2.147a.717.717,0,0,0-.712-.051,35.369,35.369,0,0,1-5.937,2.388,3.344,3.344,0,0,0-2.565,3.26l-.685,9.881a.84.84,0,1,1-1.676-.117l.683-9.822a5,5,0,0,1,3.848-4.834A35.073,35.073,0,0,0,67,155.85a2.4,2.4,0,0,1,2.384.17l3.184,2.147a.919.919,0,0,0,1.032,0l3.184-2.147a2.4,2.4,0,0,1,2.384-.17,35.077,35.077,0,0,0,5.6,2.266,5.019,5.019,0,0,1,3.85,4.892l.681,9.764a.84.84,0,0,1-.78.9Z" transform="translate(-43.225 -118.274)"/>
        <path id="Trazado_997982" data-name="Trazado 997982" d="M114.992,58.773a.84.84,0,0,1-.832-.961l.7-4.819a.894.894,0,0,0-.344-.063h-2.545a.894.894,0,0,0-.344.063l.7,4.819a.84.84,0,1,1-1.662.241l-.735-5.067a1.845,1.845,0,0,1,2.042-1.735h2.545a1.852,1.852,0,0,1,2.051,1.615l-.744,5.188A.84.84,0,0,1,114.992,58.773Z" transform="translate(-83.553 -38.954)"/>
        <path id="Trazado_997983" data-name="Trazado 997983" d="M142.794,69.158a.84.84,0,0,1-.84-.84,7.731,7.731,0,0,0-3.057-6.243.84.84,0,0,1,.995-1.353,9.416,9.416,0,0,1,3.742,7.6A.84.84,0,0,1,142.794,69.158Z" transform="translate(-105.31 -46.029)"/>
        <path id="Trazado_997984" data-name="Trazado 997984" d="M88.572,68.842a.84.84,0,0,1-.84-.84,9.373,9.373,0,0,1,3.9-7.707.84.84,0,1,1,.965,1.375A7.692,7.692,0,0,0,89.412,68,.84.84,0,0,1,88.572,68.842Z" transform="translate(-66.682 -45.712)"/>
        <path id="Trazado_997985" data-name="Trazado 997985" d="M93.051,86.781a10.745,10.745,0,0,1,2.019.192l.727.139a21.276,21.276,0,0,0,3.994.379,2.952,2.952,0,0,1,2.949,2.949v.429a2.952,2.952,0,0,1-2.949,2.949H86.313a2.952,2.952,0,0,1-2.949-2.949v-.518a2.863,2.863,0,0,1,2.86-2.86,22.192,22.192,0,0,0,4.168-.4l.642-.123A10.753,10.753,0,0,1,93.051,86.781Zm6.739,5.357a1.271,1.271,0,0,0,1.27-1.269V90.44a1.271,1.271,0,0,0-1.269-1.269,22.959,22.959,0,0,1-4.31-.409l-.727-.139a9.085,9.085,0,0,0-3.4,0l-.642.123a23.876,23.876,0,0,1-4.484.426,1.182,1.182,0,0,0-1.181,1.18v.518a1.271,1.271,0,0,0,1.269,1.269Z" transform="translate(-63.362 -65.959)"/>
        <path id="Línea_3308" data-name="Línea 3308" d="M-2.66,12.447a.84.84,0,0,1-.84-.84V-2.66a.84.84,0,0,1,.84-.84.84.84,0,0,1,.84.84V11.608A.84.84,0,0,1-2.66,12.447Z" transform="translate(42.786 42.949)"/>
        <path id="Trazado_997986" data-name="Trazado 997986" d="M105.958,166.923H97.4a2.911,2.911,0,0,1-2.908-2.908v-5.664a.84.84,0,0,1,1.68,0v5.664a1.23,1.23,0,0,0,1.228,1.228h8.557a1.23,1.23,0,0,0,1.228-1.228V158.35a.84.84,0,0,1,1.68,0v5.665A2.911,2.911,0,0,1,105.958,166.923Z" transform="translate(-71.821 -119.717)"/>
        <path id="Línea_3309" data-name="Línea 3309" d="M-2.66,12.449a.84.84,0,0,1-.84-.84V-2.66a.84.84,0,0,1,.84-.84.84.84,0,0,1,.84.84V11.61A.84.84,0,0,1-2.66,12.449Z" transform="translate(22.261 42.947)"/>
      </g>
    </g>
  </g>
</svg>
