<svg xmlns="http://www.w3.org/2000/svg" xmlns:xlink="http://www.w3.org/1999/xlink" width="96" height="96" viewBox="0 0 96 96">
  <defs>
    <clipPath id="clip-path">
      <rect id="Rectángulo_455234" data-name="Rectángulo 455234" width="67.711" height="55.812" fill="none"/>
    </clipPath>
  </defs>
  <g id="Grupo_154427" data-name="Grupo 154427" transform="translate(-794.039 -2920.351)">
    <path id="Elipse_5729" data-name="Elipse 5729" d="M48,0A48,48,0,1,1,0,48,48,48,0,0,1,48,0Z" transform="translate(794.039 2920.351)" fill="#f5f9fc"/>
    <g id="Grupo_1177878" data-name="Grupo 1177878" transform="translate(808.039 2940.351)">
      <g id="Grupo_1177877" data-name="Grupo 1177877" clip-path="url(#clip-path)">
        <path id="Trazado_997966" data-name="Trazado 997966" d="M58.772,91.408A11.625,11.625,0,0,1,47.244,79.714V78.156a.963.963,0,0,1,1.926,0v1.558a9.6,9.6,0,1,0,19.2,0V78.156a.963.963,0,0,1,1.926,0v1.558A11.624,11.624,0,0,1,58.772,91.408Z" transform="translate(-34.243 -55.95)"/>
        <path id="Trazado_997967" data-name="Trazado 997967" d="M48.091,152.3a.963.963,0,0,1-.952-.825l-1.047-7.2a5.51,5.51,0,0,0-4.189-5.449,53.914,53.914,0,0,1-9.033-3.636,1.424,1.424,0,0,0-1.413.1l-4.88,3.291a3.649,3.649,0,0,1-4.1,0l-4.88-3.291a1.424,1.424,0,0,0-1.413-.1,53.94,53.94,0,0,1-9.033,3.636,5.449,5.449,0,0,0-4.179,5.311l-1.057,7.342A.963.963,0,1,1,.01,151.2L1.057,144A7.312,7.312,0,0,1,6.7,136.951a54.034,54.034,0,0,0,8.646-3.5,3.356,3.356,0,0,1,3.331.238l4.88,3.291a1.731,1.731,0,0,0,1.944,0l4.88-3.291a3.357,3.357,0,0,1,3.331-.238,54.013,54.013,0,0,0,8.645,3.5,7.37,7.37,0,0,1,5.653,7.183l1.037,7.064a.964.964,0,0,1-.954,1.1Z" transform="translate(0 -96.488)"/>
        <path id="Trazado_997968" data-name="Trazado 997968" d="M79.949,10.88a.964.964,0,0,1-.958-1.071l.877-7.766c-.006.052-.176-.116-.486-.116H76.349c-.31,0-.48.168-.48.224l.871,7.658a.963.963,0,0,1-1.914.216l-.877-7.766A2.3,2.3,0,0,1,76.349,0h3.032a2.292,2.292,0,0,1,2.407,2.151l-.883,7.874A.963.963,0,0,1,79.949,10.88Z" transform="translate(-53.599 0)"/>
        <path id="Trazado_997969" data-name="Trazado 997969" d="M112.649,21.038a.963.963,0,0,1-.949-.8,11.825,11.825,0,0,0-5.51-8.282.963.963,0,1,1,.988-1.654,13.747,13.747,0,0,1,6.422,9.619.964.964,0,0,1-.951,1.122Z" transform="translate(-76.628 -7.364)"/>
        <path id="Trazado_997970" data-name="Trazado 997970" d="M42.887,21.042a.964.964,0,0,1-.951-1.122A13.745,13.745,0,0,1,48.356,10.3a.963.963,0,0,1,.988,1.654,11.823,11.823,0,0,0-5.508,8.28A.963.963,0,0,1,42.887,21.042Z" transform="translate(-30.386 -7.369)"/>
        <path id="Trazado_997971" data-name="Trazado 997971" d="M49.926,47.641a18.629,18.629,0,0,1,3.5.332l.418.08a35.393,35.393,0,0,0,6.648.631h1.077a2.884,2.884,0,0,1,0,5.767H38.286a2.884,2.884,0,0,1,0-5.767h.941a36.83,36.83,0,0,0,6.914-.656l.288-.055A18.63,18.63,0,0,1,49.926,47.641Zm11.641,4.884a.957.957,0,0,0,0-1.914H60.489a37.324,37.324,0,0,1-7.01-.666l-.418-.08a16.735,16.735,0,0,0-6.27,0l-.288.055a38.76,38.76,0,0,1-7.276.691h-.941a.957.957,0,0,0,0,1.914Z" transform="translate(-25.661 -34.531)"/>
        <path id="Línea_3306" data-name="Línea 3306" d="M-2.537,12.443A.963.963,0,0,1-3.5,11.48V-2.537A.963.963,0,0,1-2.537-3.5a.963.963,0,0,1,.963.963V11.48A.963.963,0,0,1-2.537,12.443Z" transform="translate(42.797 43.37)"/>
        <path id="Trazado_997972" data-name="Trazado 997972" d="M67.521,156.122H54.406a4.137,4.137,0,0,1-4.132-4.132v-6.144a.963.963,0,0,1,1.926,0v6.144a2.209,2.209,0,0,0,2.206,2.206H67.521a2.209,2.209,0,0,0,2.206-2.206v-6.144a.963.963,0,0,1,1.926,0v6.144A4.137,4.137,0,0,1,67.521,156.122Z" transform="translate(-36.439 -105.012)"/>
        <path id="Línea_3307" data-name="Línea 3307" d="M-2.537,12.445a.963.963,0,0,1-.963-.963V-2.537A.963.963,0,0,1-2.537-3.5a.963.963,0,0,1,.963.963V11.482A.963.963,0,0,1-2.537,12.445Z" transform="translate(11.34 43.367)"/>
        <path id="Trazado_997973" data-name="Trazado 997973" d="M155.022,72.195a.963.963,0,0,1-.137-1.917,16.83,16.83,0,1,0-10.653-31.34.963.963,0,0,1-.943-1.68,18.757,18.757,0,1,1,11.872,34.926A.971.971,0,0,1,155.022,72.195Z" transform="translate(-103.501 -25.273)"/>
        <path id="Línea_3308" data-name="Línea 3308" d="M-2.537,2.086A.963.963,0,0,1-3.5,1.123V-2.537A.963.963,0,0,1-2.537-3.5a.963.963,0,0,1,.963.963V1.123A.963.963,0,0,1-2.537,2.086Z" transform="translate(51.493 13.095)"/>
        <path id="Línea_3309" data-name="Línea 3309" d="M.051,1.014A.96.96,0,0,1-.63.732L-3.218-1.856a.963.963,0,0,1,0-1.362.963.963,0,0,1,1.362,0L.732-.63a.963.963,0,0,1,0,1.362A.96.96,0,0,1,.051,1.014Z" transform="translate(61.486 40.88)"/>
        <path id="Línea_3310" data-name="Línea 3310" d="M1.123-1.574H-2.537A.963.963,0,0,1-3.5-2.537.963.963,0,0,1-2.537-3.5H1.123a.963.963,0,0,1,.963.963A.963.963,0,0,1,1.123-1.574Z" transform="translate(65.625 30.887)"/>
        <path id="Línea_3311" data-name="Línea 3311" d="M-2.537,1.014A.96.96,0,0,1-3.218.732a.963.963,0,0,1,0-1.362L-.63-3.218a.963.963,0,0,1,1.362,0,.963.963,0,0,1,0,1.362L-1.856.732A.96.96,0,0,1-2.537,1.014Z" transform="translate(61.486 18.306)"/>
        <path id="Trazado_997974" data-name="Trazado 997974" d="M156.3,83.463a.96.96,0,0,1-.514-.149l-7.237-4.572a.963.963,0,0,1,1.029-1.628l6.527,4.124,5.219-6.187a.963.963,0,0,1,1.472,1.242l-5.761,6.828A.962.962,0,0,1,156.3,83.463Z" transform="translate(-107.347 -54.15)"/>
      </g>
    </g>
  </g>
</svg>
